<svg width="175" height="105" viewBox="0 0 175 105" fill="none" xmlns="http://www.w3.org/2000/svg">
<g filter="url(#filter0_d_497_1080)">
<rect width="106" height="46" transform="translate(65.2251 39.212) rotate(6.52218)" fill="#A839FF"/>
<path d="M73.0505 64.577L72.8815 66.0554C75.3804 66.172 78.0967 66.2893 80.7653 66.4011L81.2619 66.0714L81.3246 65.523L73.0505 64.577ZM82.1098 58.6557L73.8357 57.7098L73.6775 59.0928L81.9516 60.0387L82.1098 58.6557ZM81.5591 63.4723L81.7199 62.0655L73.4458 61.1195L73.285 62.5264L81.5591 63.4723ZM85.9432 61.6787L88.5804 63.333C87.2341 64.9666 85.695 66.385 84.0558 67.6228L83.4343 73.0594C83.2461 74.7047 82.8435 75.4799 81.7132 75.858C80.6334 76.2177 79.078 76.0882 76.8128 75.8292C76.789 74.981 76.4675 73.5673 76.1521 72.7341C77.5984 72.9719 79.318 73.1444 79.771 73.1962C80.2717 73.2534 80.4577 73.1056 80.5068 72.6764L80.8394 69.7673C76.753 72.1264 72.033 73.6884 67.1032 74.55C66.7769 73.8122 65.9704 72.4155 65.4928 71.7329C69.5178 71.1785 73.3269 70.1887 76.6898 68.6649C73.1042 68.5448 69.6433 68.3907 67.0197 68.3081L67.0225 65.7479C67.9341 65.8038 68.9199 65.844 70.0222 65.9217L71.2762 54.9532L76.2121 55.5175C76.6147 54.7422 76.9935 53.9642 77.2395 53.2918L80.6799 54.0475C80.2671 54.7008 79.8119 55.301 79.3595 55.8773L85.3207 56.5589L84.552 63.2831C85.0466 62.7599 85.5174 62.2339 85.9432 61.6787ZM97.5415 55.7337L100.114 56.8974C99.2821 58.4691 98.3255 60.0748 97.2579 61.5954L95.3905 77.929L92.6007 77.61L93.9746 65.5923C93.4003 66.1789 92.8341 66.6939 92.2707 67.1851C92.0902 66.4398 91.5043 64.8026 91.0827 64.0539C93.474 62.1532 95.9595 59.0072 97.5415 55.7337ZM106.365 57.3705L110.633 57.8584C110.973 60.7961 112.223 63.8136 114.12 65.6006C113.519 66.2083 112.521 67.5436 112.033 68.4299C111.735 68.0818 111.46 67.7363 111.212 67.3698C111.158 67.6294 111.12 67.9632 111.098 68.154C110.046 74.8216 109.487 77.3907 108.697 78.17C108.144 78.7832 107.595 78.9378 106.866 78.9752C106.232 79.0236 105.252 78.9356 104.184 78.7653C104.203 77.9702 104.066 76.8434 103.74 76.1055C104.539 76.2936 105.279 76.3781 105.684 76.4245C106.018 76.4626 106.217 76.4129 106.461 76.1751C106.9 75.718 107.346 73.9331 108.092 69.3079L105.088 68.9644C103.92 73.6863 101.917 76.6219 98.2124 78.1791C97.9412 77.5925 97.0863 76.4078 96.5685 75.8654C99.7604 74.781 101.438 72.3639 102.322 68.6482L100.128 68.3974L100.409 65.9414C100.058 66.2636 99.6858 66.5593 99.3165 66.8311C99.0563 66.1491 98.3056 64.6864 97.8757 64.0092C99.9952 62.5847 101.797 60.1335 102.935 57.3649L105.643 58.3992C104.423 61.255 102.644 63.9263 100.571 65.7908L110.943 66.9767C109.669 65.0193 108.712 62.6151 108.176 60.3314L106.054 60.0888L106.365 57.3705ZM134.338 64.337L134.502 62.9063L127.992 62.1621L127.829 63.5928L134.338 64.337ZM133.943 67.7945L134.109 66.34L127.6 65.5958L127.434 67.0503L133.943 67.7945ZM137.707 61.0745L136.655 70.2786L124.375 68.8746L125.427 59.6706L137.707 61.0745ZM122.292 58.5634L124.96 59.738C124.192 61.3894 123.2 63.0878 122.148 64.6826L120.308 80.7778L117.542 80.4615L118.87 68.8492C118.402 69.3513 117.915 69.8029 117.455 70.2335C117.301 69.467 116.679 67.7291 116.265 66.9088C118.538 64.9945 120.808 61.8239 122.292 58.5634ZM125.204 78.1005L133.74 79.0765L133.92 77.5027L125.384 76.5268L125.204 78.1005ZM134.351 73.7353L125.815 72.7593L125.648 74.2139L134.185 75.1898L134.351 73.7353ZM123.274 70.0532L137.58 71.6889L136.34 82.5382L133.383 82.2001L133.468 81.461L124.931 80.485L124.833 81.3434L122.02 81.0217L123.274 70.0532ZM163.813 71.0645L163.605 73.094L149.37 71.4666L149.602 69.4398L155.348 70.0968L155.46 69.1191L151.216 68.6339L151.417 66.8694L155.662 67.3546L155.765 66.4485L150.758 65.876L150.973 63.9923L153.572 64.2895C153.367 63.7587 153.096 63.1721 152.835 62.7075L154.92 62.2211C155.368 62.9488 155.837 63.9203 156.028 64.5702L158.961 64.9056C159.443 64.2842 160.021 63.4565 160.285 62.8345L162.694 63.738C162.274 64.2455 161.806 64.7476 161.393 65.1836L163.969 65.478L163.753 67.3618L158.484 66.7593L158.38 67.6654L162.91 68.1834L162.709 69.9479L158.178 69.4299L158.066 70.4075L163.813 71.0645ZM150.03 65.6962L149.776 67.9137L142.003 67.025L142.256 64.8074L145.571 65.1864C145.457 64.2796 145.127 62.9374 144.738 61.9026L146.85 61.3951C147.286 62.4354 147.724 63.8866 147.846 64.7218L146.024 65.2382L150.03 65.6962ZM145.988 77.3847L143.627 77.1148L143.305 79.9285L145.666 80.1984L145.988 77.3847ZM148.263 75.4465L147.445 82.6L143.057 82.0983L142.943 83.0998L140.94 82.8708L141.872 74.716L148.263 75.4465ZM142.101 73.5585L142.344 71.4363L148.687 72.1614L148.444 74.2836L142.101 73.5585ZM142.469 70.3394L142.715 68.1934L149.057 68.9186L148.812 71.0646L142.469 70.3394ZM154.342 75.7309L156.464 75.9735C156.484 75.3719 156.526 74.797 156.576 74.1504C155.937 74.2465 155.25 74.337 154.497 74.3717L154.342 75.7309ZM160.131 78.7601L161.932 79.9081C161.227 80.7938 160.339 81.5861 159.346 82.2455C159.636 82.8825 160.006 83.2388 160.482 83.2934C160.84 83.3342 161.149 82.7415 161.368 81.4621C161.772 81.9431 162.402 82.3533 162.878 82.6251C162.282 84.876 161.424 85.6234 159.969 85.4571C158.753 85.318 157.894 84.5918 157.325 83.4397C156.479 83.8743 155.595 84.2081 154.743 84.4731C154.506 84.0112 153.986 83.2754 153.577 82.8421C154.625 82.5512 155.716 82.0961 156.743 81.5614C156.547 80.5245 156.437 79.3765 156.42 78.046L154.107 77.7815L154.004 78.6876L155.933 78.715L155.752 80.7234L153.769 80.7383L153.587 82.3359C153.461 83.4327 153.189 83.9089 152.412 84.1582C151.637 84.3837 150.609 84.2903 149.202 84.1295C149.175 83.5225 148.961 82.6525 148.74 82.0475C149.548 82.164 150.454 82.2676 150.716 82.2976C151.005 82.3065 151.109 82.2458 151.139 81.9835L151.278 80.7675C150.239 80.7695 149.271 80.7796 148.378 80.7742L148.364 78.5743C149.278 78.6064 150.338 78.6309 151.52 78.6453L151.651 77.5007L148.671 77.16L148.905 75.1093L151.886 75.4501L152.003 74.4248C151.229 74.4329 150.484 74.3961 149.764 74.362C149.747 73.8769 149.566 73.1316 149.403 72.654C151.428 72.6923 153.853 72.6072 155.312 72.315L156.576 74.1504C156.604 73.6946 156.632 73.2389 156.681 72.8097L159.041 73.0795C158.913 74.2002 158.814 75.276 158.753 76.2352L161.209 76.516C160.811 75.77 159.958 74.7787 159.195 74.0633L160.941 73.1518C161.755 73.8488 162.725 74.8776 163.123 75.6236L161.447 76.5433L163.14 76.7368L162.906 78.7875L158.733 78.3104C158.728 78.9862 158.782 79.5721 158.841 80.1103C159.325 79.6825 159.785 79.252 160.131 78.7601Z" fill="#F5F5F5"/>
</g>
<g filter="url(#filter1_d_497_1080)">
<rect width="106" height="46" transform="translate(4 18.5992) rotate(-9.98931)" fill="#CEFF5B"/>
<path d="M18.658 47.7221L29.8852 45.7446L29.4523 43.2864L18.2251 45.2639L18.658 47.7221ZM28.5655 38.2519L17.3383 40.2294L17.7671 42.664L28.9943 40.6865L28.5655 38.2519ZM27.6788 33.2174L16.4516 35.1949L16.8804 37.6295L28.1076 35.652L27.6788 33.2174ZM22.0988 31.4222L30.206 29.9942L33.549 48.974L30.5472 49.5028L30.3432 48.3446L19.116 50.3221L19.3242 51.5039L16.4642 52.0076L13.117 33.0042L19.1679 31.9384C19.2488 30.8762 19.309 29.6959 19.2607 28.7296L22.7309 28.5083C22.5429 29.5162 22.3271 30.5046 22.0988 31.4222ZM56.9908 26.6899L55.0007 28.6732C54.1946 27.6941 52.4336 26.2741 50.9574 25.3644L52.8307 23.5479C54.275 24.4145 56.1097 25.6997 56.9908 26.6899ZM54.9729 32.9427L57.642 33.5692C56.9156 35.6711 55.8959 37.6297 54.6301 39.4366C55.5889 41.1442 56.5131 42.1024 57.2222 41.9775C57.7186 41.8901 57.8024 40.7056 57.4293 37.8957C58.1604 38.4493 59.2182 38.9209 60.0287 39.095C60.3082 43.3104 59.6168 44.5044 57.4659 44.8833C55.7405 45.1872 54.1671 44.0022 52.7427 41.8648C51.5717 43.2408 50.2533 44.4722 48.878 45.5186C48.3596 44.9276 47.4089 44.0959 46.611 43.5784C48.2853 42.4306 49.9013 40.9519 51.2949 39.3174C50.446 37.5417 49.6654 35.4616 48.9737 33.1952L44.1756 34.0403L44.6502 36.7348C45.8182 36.3098 47.0056 35.8569 48.1736 35.4319L48.8359 37.9471L45.1206 39.4057L45.8325 43.4475C46.1031 44.9838 45.9054 45.7985 45.0391 46.4141C44.1964 47.0256 42.799 47.3935 40.8803 47.7071C40.6248 46.9479 39.9272 45.7548 39.388 45.0456C40.7242 44.8834 42.0909 44.6183 42.5122 44.5197C42.9376 44.4448 43.0586 44.3016 42.992 43.9234L42.3884 40.4962C40.9298 41.0699 39.5184 41.6353 38.3074 42.0923L37.1223 39.3767C38.4321 38.9267 40.0881 38.3669 41.8971 37.7071L41.3392 34.5399L36.872 35.3267L36.4016 32.6558L40.8688 31.869L40.3942 29.1745C39.1553 29.612 37.8845 30.0064 36.704 30.3606C36.4651 29.6959 35.9037 28.7226 35.4841 28.1385C38.714 27.1066 42.2444 25.7049 44.5179 24.5003L46.8293 26.5545C45.7099 27.1172 44.4641 27.6534 43.1431 28.1785L43.7052 31.3694L48.2433 30.5701C47.6795 28.4761 47.2214 26.2905 46.819 24.1437L49.7735 23.6233C50.1134 25.8298 50.5951 28.0113 51.1505 30.058L57.5796 28.9257L58.05 31.5965L51.9046 32.679C52.3435 34.0638 52.8213 35.3931 53.2936 36.5527C53.9655 35.3865 54.5582 34.1855 54.9729 32.9427ZM80.448 30.0884L83.0919 31.4017C81.9431 32.6276 80.5538 33.8714 79.3481 34.9124C81.0105 35.9111 82.9581 36.5916 85.1894 36.8078C84.6748 37.4833 84.0515 38.7872 83.7829 39.6143C78.5947 38.7979 75.0601 35.8869 72.4256 31.3065C71.6898 32.3865 70.808 33.4678 69.8387 34.4671L70.5464 38.4853L75.4062 36.1915C75.6103 36.9354 76.0229 38.0325 76.3202 38.6137C69.9141 41.8134 68.9088 42.3317 68.2746 42.882C67.9926 42.2493 67.2047 41.0965 66.6793 40.6042C67.1535 40.2526 67.7154 39.5688 67.5323 38.5288L67.2284 36.8034C66.241 37.5621 65.2648 38.2458 64.2442 38.8155C63.7536 38.2439 62.7153 37.3302 62.0245 36.867C64.5302 35.5971 67.089 33.6599 68.8817 31.6626L62.169 32.845L61.7485 30.4577L70.7066 28.8799L70.4735 27.5563L63.6899 28.7511L63.2944 26.5056L70.078 25.3108L69.8615 24.0817L61.9198 25.4806L61.4993 23.0933L69.4411 21.6945L69.1413 19.9927L71.9776 19.4931L72.2774 21.1949L80.5028 19.7461L80.9233 22.1334L72.6979 23.5822L72.9144 24.8112L80.2179 23.5248L80.6134 25.7703L73.3099 27.0567L73.543 28.3803L82.572 26.79L82.9925 29.1772L75.0507 30.576C75.708 31.6788 76.5335 32.63 77.4369 33.47C78.5397 32.3985 79.6997 31.0975 80.448 30.0884ZM101.907 22.9702L101.338 22.9242C101.483 22.3625 101.65 21.6508 101.735 21.0266L97.3857 21.7926C97.8248 22.3488 98.2014 22.9648 98.407 23.4404L97.7938 23.6946L101.907 22.9702ZM94.7273 22.3339L95.0221 22.2089L92.0203 22.7376L91.6623 20.7049L97.8786 19.61L97.6663 18.4045L92.9863 19.2288L92.6449 17.2907L97.3249 16.4664L97.0792 15.0718L99.8683 14.5806L100.114 15.9751L104.983 15.1175L105.324 17.0557L100.455 17.9133L100.668 19.1187L106.955 18.0113L107.313 20.044L104.075 20.6144L104.667 20.6563C104.41 21.4084 104.159 22.0617 103.916 22.6164L107.39 22.0044L107.74 23.9898L101.713 25.0514L101.9 26.115L107.076 25.2033L107.418 27.1415L102.241 28.0532L102.441 29.1877L108.516 28.1178L108.874 30.1505L102.799 31.2205L103.132 33.1113L100.343 33.6026L100.01 31.7117L94.1247 32.7483L93.7667 30.7156L99.6521 29.679L99.4522 28.5445L94.4886 29.4187L94.1473 27.4806L99.1109 26.6063L98.9235 25.5427L93.0618 26.5751L92.712 24.5897L95.7847 24.0485C95.5389 23.4826 95.1345 22.8471 94.7273 22.3339ZM90.3249 20.3068L87.911 21.6824C87.4595 20.641 86.5452 19.0474 85.9144 17.8182L88.2671 16.6483C88.9369 17.8219 89.8067 19.3015 90.3249 20.3068ZM91.7158 26.9584L92.9962 27.1715C92.9496 29.3974 92.7069 31.7552 92.2155 33.6695C92.6312 33.8156 93.1386 34.0674 93.8433 34.3332C95.6213 35.0191 97.8681 34.7696 100.634 34.2825C103.352 33.8038 107.541 32.8222 110.098 31.9819C109.9 32.7966 109.669 34.2507 109.779 35.0112C107.861 35.4708 103.707 36.3731 100.941 36.8602C97.7977 37.4139 95.7665 37.5036 93.8898 36.8107C92.8013 36.4419 91.8367 35.8076 91.3403 35.895C90.7967 35.9908 90.2289 37.7479 89.8989 39.1951L87.5612 36.8531C88.1942 35.7425 88.9272 34.7848 89.6239 34.1747C89.9594 32.8971 90.174 31.3484 90.2704 29.8205L87.2922 30.3451C87.5902 28.8548 87.8954 26.8515 88.0906 24.9163L85.9634 25.291L85.5263 22.8092L91.0571 21.835C90.8522 23.577 90.6138 25.5441 90.3616 27.2944L91.307 27.1279L91.7158 26.9584Z" fill="#2D2E2C"/>
</g>
<defs>
<filter id="filter0_d_497_1080" x="56.0001" y="39.212" width="118.539" height="65.7426" filterUnits="userSpaceOnUse" color-interpolation-filters="sRGB">
<feFlood flood-opacity="0" result="BackgroundImageFix"/>
<feColorMatrix in="SourceAlpha" type="matrix" values="0 0 0 0 0 0 0 0 0 0 0 0 0 0 0 0 0 0 127 0" result="hardAlpha"/>
<feOffset dy="4"/>
<feGaussianBlur stdDeviation="2"/>
<feComposite in2="hardAlpha" operator="out"/>
<feColorMatrix type="matrix" values="0 0 0 0 0 0 0 0 0 0 0 0 0 0 0 0 0 0 0.25 0"/>
<feBlend mode="normal" in2="BackgroundImageFix" result="effect1_dropShadow_497_1080"/>
<feBlend mode="normal" in="SourceGraphic" in2="effect1_dropShadow_497_1080" result="shape"/>
</filter>
<filter id="filter1_d_497_1080" x="0" y="0.212036" width="120.372" height="71.6898" filterUnits="userSpaceOnUse" color-interpolation-filters="sRGB">
<feFlood flood-opacity="0" result="BackgroundImageFix"/>
<feColorMatrix in="SourceAlpha" type="matrix" values="0 0 0 0 0 0 0 0 0 0 0 0 0 0 0 0 0 0 127 0" result="hardAlpha"/>
<feOffset dy="4"/>
<feGaussianBlur stdDeviation="2"/>
<feComposite in2="hardAlpha" operator="out"/>
<feColorMatrix type="matrix" values="0 0 0 0 0 0 0 0 0 0 0 0 0 0 0 0 0 0 0.25 0"/>
<feBlend mode="normal" in2="BackgroundImageFix" result="effect1_dropShadow_497_1080"/>
<feBlend mode="normal" in="SourceGraphic" in2="effect1_dropShadow_497_1080" result="shape"/>
</filter>
</defs>
</svg>
